<svg xmlns="http://www.w3.org/2000/svg" viewBox="0 0 1600 900"><defs><linearGradient id="sky" x1="0" y1="0" x2="0" y2="1"><stop stop-color="#1a1740"/><stop offset=".58" stop-color="#7a5aa5"/><stop offset="1" stop-color="#f3c979"/></linearGradient><linearGradient id="castle" x1="0" y1="0" x2="1" y2="1"><stop stop-color="#fff2b8"/><stop offset="1" stop-color="#d9a85b"/></linearGradient></defs><rect width="1600" height="900" fill="url(#sky)"/><circle cx="1260" cy="175" r="105" fill="#fff4bf" opacity=".8"/><g fill="#fff" opacity=".2"><circle cx="180" cy="160" r="5"/><circle cx="330" cy="260" r="3"/><circle cx="1480" cy="245" r="4"/><circle cx="1120" cy="110" r="3"/></g><path d="M0 690 Q320 575 620 680T1600 650V900H0Z" fill="#234e49"/><g transform="translate(620 285)" fill="url(#castle)" stroke="#543b6d" stroke-width="8"><path d="M0 340V140h110V70h75v70h110V0h85v140h110v-70h75v70h110v200z"/><path d="M245 340V170h120v170z" fill="#6b4b82"/><circle cx="305" cy="245" r="30" fill="#f8dc73" stroke="#543b6d"/></g><g transform="translate(175 430)"><ellipse cx="130" cy="240" rx="125" ry="130" fill="#f3eee2" stroke="#5c4775" stroke-width="8"/><path d="M40 125Q-40 55 15 15q80 30 115 100Q160 45 245 15q55 40-25 110" fill="#f3eee2" stroke="#5c4775" stroke-width="8"/><circle cx="88" cy="205" r="12" fill="#1d1a24"/><circle cx="172" cy="205" r="12" fill="#1d1a24"/><path d="M105 265q25 25 50 0" fill="none" stroke="#1d1a24" stroke-width="8" stroke-linecap="round"/><rect x="72" y="285" width="116" height="28" rx="14" fill="#6fe1c0" stroke="#5c4775" stroke-width="6"/><text x="130" y="306" text-anchor="middle" fill="#1d1a24" font-family="Arial,sans-serif" font-size="14" font-weight="900">CODE</text></g><g fill="#fff9dd" font-family="Arial,sans-serif"><text x="86" y="100" font-size="20" letter-spacing="8">KOTTON’S CODE / CARTOON STUDIO</text><text x="86" y="760" font-size="82" font-weight="900">EVERY WORD IS AN ADVENTURE.</text><text x="90" y="812" font-size="19" letter-spacing="5" fill="#f6e8cf">CODE CREW / STORY / PLAY / DISCOVERY</text></g><g fill="#ffd968"><text x="1180" y="560" font-family="Arial,sans-serif" font-size="34" font-weight="900">K</text><text x="1235" y="625" font-family="Arial,sans-serif" font-size="28">✦</text><text x="1320" y="565" font-family="Arial,sans-serif" font-size="24">✦</text></g></svg>